<svg width="30" height="32" viewBox="0 0 30 32" fill="none" xmlns="http://www.w3.org/2000/svg">
<path fill-rule="evenodd" clip-rule="evenodd" d="M7.23023 27.3861C12.3051 30.2363 15.8111 20.0171 -0.00596879 16.0002C15.8111 11.9831 12.3051 1.76352 7.23024 4.6137C7.78497 5.0258 8.14464 5.68597 8.14464 6.43017C8.14464 7.67881 7.13251 8.69074 5.88388 8.69074C4.63563 8.69074 3.62331 7.67881 3.62331 6.43017C3.46507 1.74501 6.9095 0.0518998 9.64038 0.000821325C13.8392 -0.0778203 17.4427 5.49997 14.3009 10.2482C20.1358 10.1335 25.3435 12.1371 30.0001 16.0002C25.3435 19.8629 20.1358 21.8663 14.3009 21.7518C17.4427 26.4998 13.8392 32.078 9.64037 31.9992C6.9095 31.9479 3.46507 30.2548 3.62331 25.5698C3.62331 24.3214 4.63563 23.3091 5.88388 23.3091C7.13251 23.3091 8.14464 24.3214 8.14464 25.5698C8.14464 26.3142 7.78497 26.974 7.23023 27.3861Z" fill="#C21819"/>
</svg>
